<svg width="83" height="29" viewBox="0 0 83 29" fill="none" xmlns="http://www.w3.org/2000/svg">
<rect width="76.3715" height="1.44097" transform="matrix(1 0 0 -1 3.22803 25.8222)" fill="url(#paint0_linear)"/>
<path d="M7.07841 17.0385C6.95206 17.8697 7.00526 18.5447 7.23801 19.0634C7.69021 20.0343 8.74757 20.5198 10.4101 20.5198C11.1549 20.5198 11.8565 20.4134 12.5148 20.2006C13.785 19.7883 14.5331 19.0501 14.7592 17.9861C14.9321 17.1881 14.8024 16.6195 14.3702 16.2804C13.9379 15.9479 13.2098 15.6586 12.1857 15.4125L10.2904 14.9637C9.06013 14.6711 8.21224 14.3485 7.74674 13.9961C6.94873 13.3843 6.67941 12.4699 6.93876 11.2529C7.21806 9.93622 7.90302 8.85559 8.99362 8.01103C10.0842 7.16647 11.4641 6.7442 13.1333 6.7442C14.6694 6.7442 15.8931 7.1166 16.8041 7.86141C17.7218 8.59956 18.0078 9.78327 17.662 11.4125H15.7966C15.8631 10.6278 15.78 10.026 15.5473 9.60704C15.1017 8.84229 14.1541 8.45991 12.7044 8.45991C11.5339 8.45991 10.6395 8.70596 10.0211 9.19807C9.40925 9.69017 9.03353 10.2621 8.89387 10.9138C8.74092 11.632 8.92712 12.1573 9.45248 12.4898C9.79828 12.7026 10.6295 12.9686 11.9462 13.2879L13.9014 13.7567C14.8457 13.9828 15.5439 14.292 15.9961 14.6844C16.7875 15.3693 17.0435 16.3635 16.7642 17.6669C16.4184 19.2895 15.5805 20.45 14.2505 21.1482C12.9205 21.8465 11.4741 22.1956 9.91133 22.1956C8.08922 22.1956 6.76253 21.7301 5.93127 20.7991C5.10002 19.8747 4.86062 18.6212 5.21307 17.0385H7.07841ZM21.3583 7.11327H23.3633L20.2511 21.7667H18.2461L21.3583 7.11327ZM25.9325 7.11327H28.7754L30.3515 19.5023L37.1645 7.11327H39.9774L36.8652 21.7667H34.9799L36.8153 13.1183C36.8752 12.819 36.9849 12.3236 37.1445 11.632C37.3108 10.9404 37.477 10.1989 37.6433 9.40754L30.8403 21.7667H28.8752L27.2891 9.40754L27.1894 9.85642C27.1162 10.2155 27.0098 10.7642 26.8702 11.5023C26.7305 12.2338 26.6241 12.7725 26.551 13.1183L24.7156 21.7667H22.8203L25.9325 7.11327ZM42.4369 7.11327H44.4419L43.1551 13.1681H50.7761L52.0628 7.11327H54.0678L50.9556 21.7667H48.9506L50.407 14.9138H42.786L41.3296 21.7667H39.3247L42.4369 7.11327ZM62.2131 15.7617L61.3652 9.28784L57.6245 15.7617H62.2131ZM60.7966 7.11327H63.041L65.2455 21.7667H63.0709L62.5123 17.3776H56.7168L54.2031 21.7667H52.1682L60.7966 7.11327ZM68.7324 17.0385C68.606 17.8697 68.6592 18.5447 68.892 19.0634C69.3442 20.0343 70.4016 20.5198 72.0641 20.5198C72.8089 20.5198 73.5105 20.4134 74.1688 20.2006C75.439 19.7883 76.1871 19.0501 76.4132 17.9861C76.5861 17.1881 76.4564 16.6195 76.0242 16.2804C75.5919 15.9479 74.8637 15.6586 73.8396 15.4125L71.9444 14.9637C70.7141 14.6711 69.8662 14.3485 69.4007 13.9961C68.6027 13.3843 68.3334 12.4699 68.5927 11.2529C68.872 9.93622 69.557 8.85559 70.6476 8.01103C71.7382 7.16647 73.1181 6.7442 74.7873 6.7442C76.3234 6.7442 77.547 7.1166 78.4581 7.86141C79.3758 8.59956 79.6618 9.78327 79.316 11.4125H77.4506C77.5171 10.6278 77.434 10.026 77.2012 9.60704C76.7557 8.84229 75.8081 8.45991 74.3583 8.45991C73.1879 8.45991 72.2935 8.70596 71.675 9.19807C71.0632 9.69017 70.6875 10.2621 70.5479 10.9138C70.3949 11.632 70.5811 12.1573 71.1065 12.4898C71.4523 12.7026 72.2835 12.9686 73.6002 13.2879L75.5554 13.7567C76.4997 13.9828 77.1979 14.292 77.6501 14.6844C78.4415 15.3693 78.6975 16.3635 78.4182 17.6669C78.0724 19.2895 77.2345 20.45 75.9045 21.1482C74.5745 21.8465 73.1281 22.1956 71.5653 22.1956C69.7432 22.1956 68.4165 21.7301 67.5853 20.7991C66.754 19.8747 66.5146 18.6212 66.8671 17.0385H68.7324Z" fill="white"/>
<defs>
<linearGradient id="paint0_linear" x1="0" y1="1.44111" x2="76.3715" y2="1.44111" gradientUnits="userSpaceOnUse">
<stop stop-color="#F71923"/>
<stop offset="0.265625" stop-color="#1D7BF9"/>
<stop offset="0.526042" stop-color="#32FC47"/>
<stop offset="0.760417" stop-color="#F5FA06"/>
<stop offset="1" stop-color="#FE2A1A"/>
</linearGradient>
</defs>
</svg>
