<svg width="180" height="61" viewBox="0 0 180 61" fill="none" xmlns="http://www.w3.org/2000/svg">
<path fill-rule="evenodd" clip-rule="evenodd" d="M14.7128 2H19.4372L20.6644 7.93127V22.037H21.6563V28.3853H22.2514V49.8109H23.0449V19.6158L25.0288 14.9671V14.8951H28.4014V33.5433H29.5916V48.819H31.9723V57.9448H36.1384V58.3415H31.5755V49.2158H28.2029V45.6448H26.5707L26.519 45.8432H26.6159V58.1431H26.2191V46.9929L25.4255 50.0348V58.1431H25.0288V49.9839L26.2642 45.2481H26.8142V35.0072L25.416 39.3572L25.4154 39.3592L24.4336 42.3045V58.1431H24.0368V42.2401L25.0288 39.2643V15.9781L23.4417 19.6969V50.2077H21.8546V28.7821H20.2675V41.4787H19.8707V29.424L19.6724 29.8208V36.3207H15.7046V30.1708L14.1176 30.1708V36.9159H13.7208V33.5433H12.1337V43.661H12.5306V36.9159H15.2786L16.2999 43.2483V47.6287H16.8952V43.8016L18.0854 41.9313V41.4788H21.4579V58.1432H21.0612V41.8755H18.5912L18.4822 42.0468V49.6126H14.9112V37.3127H12.9274V58.1432H12.5306V52.1916H8.76126V58.3415H4V57.9448H8.36449V51.7948H12.5306V44.0578H10.745V51.7948H10.3482V43.661H11.7369V33.1465H13.7208V29.774H14.7128V2ZM28.0046 33.5433V15.2918H25.4255V38.031L26.868 33.5433H28.0046ZM15.4675 49.2158L16.2115 48.0255H16.9944L17.8871 49.2158H15.4675ZM18.0854 42.6703V48.8189L17.292 47.761V43.9172L18.0854 42.6703ZM21.2596 22.4337V28.3853H19.9465L19.2756 29.7272V35.9239H18.2838V22.4337H21.2596ZM17.887 23.0077V35.9239H17.4901V31.2789L16.1015 29.8903V26.254L17.887 23.0077ZM15.7048 29.774H15.1096V2.39677H19.0773V22.037H17.9681L15.7048 26.1521V29.774ZM19.4741 22.037H20.2676V7.97188L19.4741 4.13642V22.037ZM27.211 33.9401V45.2481H28.5997V48.819H29.1949V33.9401H27.211ZM16.1014 30.4513L17.0933 31.4432V35.9239H16.1014V30.4513ZM15.308 39.5901L15.9031 43.2801V47.7702L15.308 48.7225V39.5901Z" fill="white"/>
<path fill-rule="evenodd" clip-rule="evenodd" d="M29.5917 51.1997V53.5803H31.1788V51.1997H29.5917ZM30.782 51.5964H29.9884V53.1835H30.782V51.5964Z" fill="white"/>
<path fill-rule="evenodd" clip-rule="evenodd" d="M16.8951 37.7094V40.0901H18.879V37.7094H16.8951ZM17.2919 39.6933V38.1062H18.4822V39.6933H17.2919Z" fill="white"/>
<path fill-rule="evenodd" clip-rule="evenodd" d="M14.7128 2H19.4372L20.6644 7.93127V22.037H21.6563V28.3853H22.2514V49.8109H23.0449V19.6158L25.0288 14.9671V14.8951H28.4014V33.5433H29.5916V48.819H31.9723V57.9448H36.1384V58.3415H31.5755V49.2158H28.2029V45.6448H26.5707L26.519 45.8432H26.6159V58.1431H26.2191V46.9929L25.4255 50.0348V58.1431H25.0288V49.9839L26.2642 45.2481H26.8142V35.0072L25.416 39.3572L25.4154 39.3592L24.4336 42.3045V58.1431H24.0368V42.2401L25.0288 39.2643V15.9781L23.4417 19.6969V50.2077H21.8546V28.7821H20.2675V41.4787H19.8707V29.424L19.6724 29.8208V36.3207H15.7046V30.1708L14.1176 30.1708V36.9159H13.7208V33.5433H12.1337V43.661H12.5306V36.9159H15.2786L16.2999 43.2483V47.6287H16.8952V43.8016L18.0854 41.9313V41.4788H21.4579V58.1432H21.0612V41.8755H18.5912L18.4822 42.0468V49.6126H14.9112V37.3127H12.9274V58.1432H12.5306V52.1916H8.76126V58.3415H4V57.9448H8.36449V51.7948H12.5306V44.0578H10.745V51.7948H10.3482V43.661H11.7369V33.1465H13.7208V29.774H14.7128V2ZM28.0046 33.5433V15.2918H25.4255V38.031L26.868 33.5433H28.0046ZM15.4675 49.2158L16.2115 48.0255H16.9944L17.8871 49.2158H15.4675ZM18.0854 42.6703V48.8189L17.292 47.761V43.9172L18.0854 42.6703ZM21.2596 22.4337V28.3853H19.9465L19.2756 29.7272V35.9239H18.2838V22.4337H21.2596ZM17.887 23.0077V35.9239H17.4901V31.2789L16.1015 29.8903V26.254L17.887 23.0077ZM15.7048 29.774H15.1096V2.39677H19.0773V22.037H17.9681L15.7048 26.1521V29.774ZM19.4741 22.037H20.2676V7.97188L19.4741 4.13642V22.037ZM27.211 33.9401V45.2481H28.5997V48.819H29.1949V33.9401H27.211ZM16.1014 30.4513L17.0933 31.4432V35.9239H16.1014V30.4513ZM15.308 39.5901L15.9031 43.2801V47.7702L15.308 48.7225V39.5901Z" stroke="white" stroke-width="0.3"/>
<path fill-rule="evenodd" clip-rule="evenodd" d="M29.5917 51.1997V53.5803H31.1788V51.1997H29.5917ZM30.782 51.5964H29.9884V53.1835H30.782V51.5964Z" stroke="white" stroke-width="0.3"/>
<path fill-rule="evenodd" clip-rule="evenodd" d="M16.8951 37.7094V40.0901H18.879V37.7094H16.8951ZM17.2919 39.6933V38.1062H18.4822V39.6933H17.2919Z" stroke="white" stroke-width="0.3"/>
<path d="M40.7603 45.2712C40.7284 45.7315 40.7808 46.0756 40.9175 46.3035C41.1727 46.7182 41.715 46.9255 42.5444 46.9255C43.0412 46.9255 43.4559 46.8708 43.7886 46.7615C44.422 46.5518 44.798 46.1622 44.9165 45.5925C44.9894 45.2598 44.8983 45.0023 44.6431 44.8201C44.3924 44.6423 43.9686 44.4851 43.3716 44.3484L42.353 44.1091C41.355 43.8721 40.6851 43.6146 40.3433 43.3367C39.7645 42.8718 39.5799 42.1449 39.7896 41.156C39.981 40.2536 40.4686 39.504 41.2524 38.907C42.0363 38.31 43.064 38.0115 44.3354 38.0115C45.3973 38.0115 46.2427 38.294 46.8716 38.8591C47.5005 39.4197 47.7192 40.2354 47.5278 41.3064H45.5044C45.6001 40.7003 45.4292 40.2696 44.9917 40.0144C44.7 39.8458 44.3104 39.7615 43.8228 39.7615C43.2804 39.7615 42.8224 39.8708 42.4487 40.0896C42.0796 40.3083 41.854 40.6137 41.772 41.0056C41.6945 41.3656 41.797 41.6345 42.0796 41.8122C42.2573 41.9307 42.6652 42.0697 43.3032 42.2292L44.9507 42.6462C45.6707 42.8285 46.1925 43.0723 46.5161 43.3777C47.0174 43.8516 47.1724 44.5375 46.981 45.4353C46.785 46.3559 46.27 47.1215 45.436 47.7322C44.6021 48.3383 43.5425 48.6413 42.2573 48.6413C40.9448 48.6413 39.9764 48.3428 39.3521 47.7458C38.7277 47.1443 38.5272 46.3194 38.7505 45.2712H40.7603ZM49.8452 48.3816H47.7534L49.8931 38.3054H51.9849L49.8452 48.3816ZM60.6323 38.3054H63.6606L61.521 48.3816H59.5591L61.0015 41.5661C61.047 41.3702 61.1086 41.0967 61.186 40.7458C61.2681 40.3904 61.3273 40.1169 61.3638 39.9255L57.6655 48.3816H55.6216L55.519 39.9255C55.4826 40.1169 55.4279 40.3904 55.355 40.7458C55.2866 41.0967 55.2297 41.3702 55.1841 41.5661L53.7417 48.3816H51.7798L53.9194 38.3054H56.9819L57.1255 46.2283L60.6323 38.3054ZM63.4624 48.3816L65.6021 38.3054H67.687L66.8667 42.1472H70.8042L71.6245 38.3054H73.7163L71.5767 48.3816H69.4849L70.4351 43.8835H66.4976L65.5474 48.3816H63.4624ZM77.1548 44.574H79.7114L79.2944 40.6091L77.1548 44.574ZM78.6177 38.3054H80.9966L82.4253 48.3816H80.1421L79.9302 46.3103H76.2183L75.0835 48.3816H72.8823L78.6177 38.3054ZM90.1294 44.574H92.686L92.269 40.6091L90.1294 44.574ZM91.5923 38.3054H93.9712L95.3999 48.3816H93.1167L92.9048 46.3103H89.1929L88.0581 48.3816H85.8569L91.5923 38.3054ZM98.8657 45.2712C98.8338 45.7315 98.8862 46.0756 99.0229 46.3035C99.2782 46.7182 99.8205 46.9255 100.65 46.9255C101.147 46.9255 101.561 46.8708 101.894 46.7615C102.528 46.5518 102.903 46.1622 103.022 45.5925C103.095 45.2598 103.004 45.0023 102.749 44.8201C102.498 44.6423 102.074 44.4851 101.477 44.3484L100.458 44.1091C99.4604 43.8721 98.7905 43.6146 98.4487 43.3367C97.87 42.8718 97.6854 42.1449 97.895 41.156C98.0864 40.2536 98.5741 39.504 99.3579 38.907C100.142 38.31 101.169 38.0115 102.441 38.0115C103.503 38.0115 104.348 38.294 104.977 38.8591C105.606 39.4197 105.825 40.2354 105.633 41.3064H103.61C103.706 40.7003 103.535 40.2696 103.097 40.0144C102.806 39.8458 102.416 39.7615 101.928 39.7615C101.386 39.7615 100.928 39.8708 100.554 40.0896C100.185 40.3083 99.9595 40.6137 99.8774 41.0056C99.8 41.3656 99.9025 41.6345 100.185 41.8122C100.363 41.9307 100.771 42.0697 101.409 42.2292L103.056 42.6462C103.776 42.8285 104.298 43.0723 104.622 43.3777C105.123 43.8516 105.278 44.5375 105.086 45.4353C104.89 46.3559 104.375 47.1215 103.542 47.7322C102.708 48.3383 101.648 48.6413 100.363 48.6413C99.0503 48.6413 98.0819 48.3428 97.4575 47.7458C96.8332 47.1443 96.6326 46.3194 96.856 45.2712H98.8657ZM108.204 45.2712C108.172 45.7315 108.224 46.0756 108.361 46.3035C108.616 46.7182 109.158 46.9255 109.988 46.9255C110.485 46.9255 110.899 46.8708 111.232 46.7615C111.865 46.5518 112.241 46.1622 112.36 45.5925C112.433 45.2598 112.342 45.0023 112.086 44.8201C111.836 44.6423 111.412 44.4851 110.815 44.3484L109.796 44.1091C108.798 43.8721 108.128 43.6146 107.787 43.3367C107.208 42.8718 107.023 42.1449 107.233 41.156C107.424 40.2536 107.912 39.504 108.696 38.907C109.48 38.31 110.507 38.0115 111.779 38.0115C112.841 38.0115 113.686 38.294 114.315 38.8591C114.944 39.4197 115.163 40.2354 114.971 41.3064H112.948C113.043 40.7003 112.873 40.2696 112.435 40.0144C112.143 39.8458 111.754 39.7615 111.266 39.7615C110.724 39.7615 110.266 39.8708 109.892 40.0896C109.523 40.3083 109.297 40.6137 109.215 41.0056C109.138 41.3656 109.24 41.6345 109.523 41.8122C109.701 41.9307 110.109 42.0697 110.747 42.2292L112.394 42.6462C113.114 42.8285 113.636 43.0723 113.959 43.3777C114.461 43.8516 114.616 44.5375 114.424 45.4353C114.228 46.3559 113.713 47.1215 112.879 47.7322C112.045 48.3383 110.986 48.6413 109.701 48.6413C108.388 48.6413 107.42 48.3428 106.795 47.7458C106.171 47.1443 105.971 46.3194 106.194 45.2712H108.204ZM123.612 43.3298C123.849 42.1996 123.787 41.3269 123.427 40.7117C123.072 40.0919 122.477 39.782 121.643 39.782C120.809 39.782 120.078 40.0896 119.449 40.7048C118.824 41.3201 118.391 42.1951 118.15 43.3298C117.908 44.4646 117.97 45.3396 118.334 45.9548C118.699 46.5701 119.298 46.8777 120.132 46.8777C120.966 46.8777 121.693 46.5701 122.313 45.9548C122.937 45.3396 123.37 44.4646 123.612 43.3298ZM123.304 47.4861C122.379 48.2699 121.196 48.6618 119.756 48.6618C118.316 48.6618 117.298 48.2699 116.701 47.4861C115.885 46.5245 115.671 45.1391 116.058 43.3298C116.45 41.4841 117.254 40.0987 118.471 39.1736C119.396 38.3897 120.579 37.9978 122.019 37.9978C123.459 37.9978 124.478 38.3897 125.075 39.1736C125.895 40.0987 126.109 41.4841 125.717 43.3298C125.33 45.1391 124.526 46.5245 123.304 47.4861ZM129.149 39.3581C130.147 38.5287 131.279 38.114 132.546 38.114C134.242 38.114 135.363 38.67 135.91 39.782C136.21 40.4063 136.308 41.0329 136.204 41.6618H134.098C134.066 41.1788 133.968 40.8142 133.804 40.5681C133.517 40.1306 132.998 39.9118 132.246 39.9118C131.48 39.9118 130.81 40.2217 130.236 40.8415C129.662 41.4568 129.256 42.3295 129.019 43.4597C128.778 44.5899 128.83 45.4376 129.176 46.0027C129.523 46.5632 130.056 46.8435 130.776 46.8435C131.514 46.8435 132.129 46.602 132.622 46.1189C132.89 45.8591 133.15 45.4695 133.401 44.9499H135.486C135.071 46.0482 134.415 46.9415 133.517 47.6296C132.624 48.3178 131.592 48.6618 130.42 48.6618C128.971 48.6618 127.93 48.197 127.296 47.2673C126.667 46.3331 126.526 45.0525 126.873 43.4255C127.246 41.6664 128.005 40.3106 129.149 39.3581ZM138.302 48.3816H136.21L138.35 38.3054H140.442L138.302 48.3816ZM143.833 44.574H146.389L145.972 40.6091L143.833 44.574ZM145.295 38.3054H147.674L149.103 48.3816H146.82L146.608 46.3103H142.896L141.761 48.3816H139.56L145.295 38.3054ZM158.81 38.3054L158.427 40.0896H155.413L153.656 48.3816H151.537L153.293 40.0896H150.265L150.648 38.3054H158.81ZM167.116 40.0896H161.784L161.333 42.2292H166.227L165.851 43.9792H160.957L160.41 46.5701H165.988L165.605 48.3816H157.969L160.109 38.3054H167.499L167.116 40.0896ZM169.426 45.2712C169.394 45.7315 169.447 46.0756 169.583 46.3035C169.839 46.7182 170.381 46.9255 171.21 46.9255C171.707 46.9255 172.122 46.8708 172.455 46.7615C173.088 46.5518 173.464 46.1622 173.583 45.5925C173.655 45.2598 173.564 45.0023 173.309 44.8201C173.058 44.6423 172.635 44.4851 172.038 44.3484L171.019 44.1091C170.021 43.8721 169.351 43.6146 169.009 43.3367C168.431 42.8718 168.246 42.1449 168.456 41.156C168.647 40.2536 169.135 39.504 169.918 38.907C170.702 38.31 171.73 38.0115 173.001 38.0115C174.063 38.0115 174.909 38.294 175.538 38.8591C176.167 39.4197 176.385 40.2354 176.194 41.3064H174.17C174.266 40.7003 174.095 40.2696 173.658 40.0144C173.366 39.8458 172.976 39.7615 172.489 39.7615C171.946 39.7615 171.488 39.8708 171.115 40.0896C170.746 40.3083 170.52 40.6137 170.438 41.0056C170.361 41.3656 170.463 41.6345 170.746 41.8122C170.923 41.9307 171.331 42.0697 171.969 42.2292L173.617 42.6462C174.337 42.8285 174.859 43.0723 175.182 43.3777C175.683 43.8516 175.838 44.5375 175.647 45.4353C175.451 46.3559 174.936 47.1215 174.102 47.7322C173.268 48.3383 172.208 48.6413 170.923 48.6413C169.611 48.6413 168.642 48.3428 168.018 47.7458C167.394 47.1443 167.193 46.3194 167.417 45.2712H169.426Z" fill="white"/>
<rect width="137.487" height="2.26316" transform="matrix(1 0 0 -1 38.5132 54.6184)" fill="url(#paint0_linear)"/>
<defs>
<linearGradient id="paint0_linear" x1="0" y1="2.26338" x2="137.487" y2="2.26338" gradientUnits="userSpaceOnUse">
<stop stop-color="#F71923"/>
<stop offset="0.265625" stop-color="#1D7BF9"/>
<stop offset="0.526042" stop-color="#32FC47"/>
<stop offset="0.760417" stop-color="#F5FA06"/>
<stop offset="1" stop-color="#FE2A1A"/>
</linearGradient>
</defs>
</svg>
