<svg width="128" height="56" viewBox="0 0 128 56" fill="none" xmlns="http://www.w3.org/2000/svg">
<path fill-rule="evenodd" clip-rule="evenodd" d="M16.5957 1.92902H16.8457H20.7839H20.9875L21.0288 2.12836L22.1028 7.31972L22.108 7.34478V7.37037V20.0093H22.7531H23.0031V20.2593V25.7376H23.29H23.54V25.9876V45.071H24.1141V17.9321V17.881L24.1342 17.834L25.9243 13.6394L25.9752 13.6498V13.5648H28.8394H29.0894V13.8148V30.392H29.9135H30.1635V30.642V44.1759H32.0616H32.3116V44.4259V52.4105H35.9999V52.9105H32.0616H31.8116V52.6605V44.6759H29.9135H29.0184H28.7684V44.4259V41.4537H27.7653H27.4214L27.3933 41.5617H27.4783V52.6605H26.9783V43.1524L26.4042 45.353V52.6605H25.9042V45.321V45.2889L25.9123 45.2579L26.9864 41.1406L27.0351 40.9537H27.2283H27.5153V32.2367L26.3922 35.7308L26.3914 35.7334L25.5091 38.3801V52.6605H25.0091V38.3395V38.2989L25.022 38.2604L25.9042 35.6137V14.9602L24.6141 17.9832V45.321V45.571H24.3641H23.29H23.04V45.321V26.2376H21.7499V37.5525H22.5741H22.8241V37.8025V52.6605H22.3241V38.0525H20.2052L20.1389 38.1567V44.7839V45.0339H19.8889H17.0247H16.7747V44.7839V33.9352H15.1265V52.6605H14.6265V47.3611H11.3673V52.6605V52.9105H11.1173H7V52.4105H10.8673V47.1111V46.8611H11.1173H12.6573V39.7716V39.5216H12.9073H13.9104V30.2839V30.0339H14.1604H15.7005V27.2407V26.9907H15.9505H16.5957V2.17902V1.92902ZM28.5894 30.392V14.0648H26.4042V34.0596L27.5273 30.5655L27.5831 30.392H27.7653H28.5894ZM21.2499 27.0467V37.5525H19.8889H19.6389V37.8025V38.0111L18.604 39.6374L18.5649 39.6988V39.7716V43.1018H18.1698V39.2346V39.2145L18.1666 39.1948L17.2715 33.6454L17.2376 33.4352H17.0247H16.2005V27.4907H16.5957V27.4907H16.8457H17.4906V32.7901V33.0401H17.7406H20.9629H21.2129V32.7901V27.1207L21.2499 27.0467ZM19.0649 39.8444L19.6389 38.9424V44.0338L19.0649 43.2685V39.8444ZM18.6899 43.6018L19.389 44.5339H17.4758L18.0583 43.6018H18.6899ZM15.7005 30.5339V33.4352H14.8765H14.6265V33.6852V39.5216H14.4104V30.5339H15.7005ZM14.1604 40.0216H14.6265V46.8611H13.1573V40.0216H14.1604ZM22.5031 20.5093V25.7376H21.4999H21.3454L21.2763 25.8758L20.7392 26.9499L20.7129 27.0027V27.0617V32.5401H19.9599V20.5093H20.5339H20.7839H21.321H21.858H22.108H22.5031ZM19.4599 21.2326V32.5401H19.2437V28.4938V28.3903L19.1705 28.317L17.9907 27.1373V23.9037L19.4599 21.2326ZM17.4907 23.8395V26.9907H17.0957V2.42902H20.5339V20.0093H19.7099H19.5621L19.4908 20.1388L17.5217 23.719L17.4907 23.7753V23.8395ZM21.0339 20.0093H21.321H21.608V7.39597L21.0339 4.62127V20.0093ZM28.0153 30.892V40.9537H29.0184H29.2684V41.2037V44.1759H29.6635V30.892H28.0153ZM18.7437 32.5401V28.5974L17.9906 27.8443V32.5401H18.7437ZM17.2747 36.8052L17.6698 39.2546V43.2801L17.2747 43.9122V36.8052ZM31.0246 46.8951H30.5925V48.0432H31.0246V46.8951ZM30.5925 46.3951H30.0925V46.8951V48.0432V48.5432H30.5925H31.0246H31.5246V48.0432V46.8951V46.3951H31.0246H30.5925ZM18.8149 34.1512H18.5649V34.4012V36.1914V36.4414H18.8149H20.247H20.497V36.1914V34.4012V34.1512H20.247H18.8149ZM19.0649 35.9414V34.6512H19.997V35.9414H19.0649Z" fill="white"/>
<rect width="119" height="1" transform="matrix(1 0 0 -1 5 53)" fill="url(#paint0_linear)"/>
<path d="M43.8504 44.2718C43.724 45.1031 43.7772 45.778 44.01 46.2968C44.4622 47.2677 45.5195 47.7531 47.1821 47.7531C47.9269 47.7531 48.6284 47.6467 49.2868 47.4339C50.557 47.0216 51.3051 46.2835 51.5312 45.2194C51.7041 44.4214 51.5744 43.8529 51.1422 43.5137C50.7099 43.1812 49.9817 42.8919 48.9576 42.6459L47.0624 42.197C45.8321 41.9044 44.9842 41.5819 44.5187 41.2294C43.7207 40.6176 43.4514 39.7032 43.7107 38.4863C43.99 37.1696 44.675 36.0889 45.7656 35.2444C46.8562 34.3998 48.2361 33.9775 49.9053 33.9775C51.4414 33.9775 52.665 34.3499 53.5761 35.0947C54.4938 35.8329 54.7797 37.0166 54.4339 38.6459H52.5686C52.6351 37.8612 52.552 37.2593 52.3192 36.8404C51.8737 36.0756 50.926 35.6932 49.4763 35.6932C48.3059 35.6932 47.4115 35.9393 46.793 36.4314C46.1812 36.9235 45.8055 37.4954 45.6658 38.1471C45.5129 38.8653 45.6991 39.3907 46.2245 39.7232C46.5703 39.936 47.4015 40.202 48.7182 40.5212L50.6733 40.99C51.6176 41.2161 52.3159 41.5253 52.7681 41.9177C53.5595 42.6026 53.8155 43.5968 53.5362 44.9002C53.1904 46.5229 52.3525 47.6833 51.0225 48.3815C49.6925 49.0798 48.2461 49.4289 46.6833 49.4289C44.8612 49.4289 43.5345 48.9634 42.7032 48.0324C41.872 47.1081 41.6326 45.8545 41.985 44.2718H43.8504ZM58.1303 34.3466H60.1353L57.0231 49H55.0181L58.1303 34.3466ZM62.7045 34.3466H65.5474L67.1234 46.7357L73.9364 34.3466H76.7494L73.6372 49H71.7519L73.5873 40.3516C73.6471 40.0524 73.7569 39.5569 73.9165 38.8653C74.0827 38.1737 74.249 37.4322 74.4152 36.6409L67.6122 49H65.6471L64.0611 36.6409L63.9613 37.0898C63.8882 37.4489 63.7818 37.9975 63.6421 38.7356C63.5025 39.4671 63.3961 40.0058 63.3229 40.3516L61.4875 49H59.5923L62.7045 34.3466ZM79.2089 34.3466H81.2138L79.9271 40.4015H87.548L88.8348 34.3466H90.8398L87.7276 49H85.7226L87.1789 42.1471H79.558L78.1016 49H76.0966L79.2089 34.3466ZM98.9851 42.995L98.1372 36.5212L94.3965 42.995H98.9851ZM97.5686 34.3466H99.813L102.017 49H99.8429L99.2843 44.611H93.4888L90.9751 49H88.9401L97.5686 34.3466ZM105.504 44.2718C105.378 45.1031 105.431 45.778 105.664 46.2968C106.116 47.2677 107.174 47.7531 108.836 47.7531C109.581 47.7531 110.282 47.6467 110.941 47.4339C112.211 47.0216 112.959 46.2835 113.185 45.2194C113.358 44.4214 113.228 43.8529 112.796 43.5137C112.364 43.1812 111.636 42.8919 110.612 42.6459L108.716 42.197C107.486 41.9044 106.638 41.5819 106.173 41.2294C105.375 40.6176 105.105 39.7032 105.365 38.4863C105.644 37.1696 106.329 36.0889 107.42 35.2444C108.51 34.3998 109.89 33.9775 111.559 33.9775C113.095 33.9775 114.319 34.3499 115.23 35.0947C116.148 35.8329 116.434 37.0166 116.088 38.6459H114.223C114.289 37.8612 114.206 37.2593 113.973 36.8404C113.528 36.0756 112.58 35.6932 111.13 35.6932C109.96 35.6932 109.065 35.9393 108.447 36.4314C107.835 36.9235 107.459 37.4954 107.32 38.1471C107.167 38.8653 107.353 39.3907 107.878 39.7232C108.224 39.936 109.055 40.202 110.372 40.5212L112.327 40.99C113.272 41.2161 113.97 41.5253 114.422 41.9177C115.213 42.6026 115.469 43.5968 115.19 44.9002C114.844 46.5229 114.006 47.6833 112.676 48.3815C111.346 49.0798 109.9 49.4289 108.337 49.4289C106.515 49.4289 105.188 48.9634 104.357 48.0324C103.526 47.1081 103.287 45.8545 103.639 44.2718H105.504Z" fill="white"/>
<defs>
<linearGradient id="paint0_linear" x1="0" y1="1.0001" x2="119" y2="1.0001" gradientUnits="userSpaceOnUse">
<stop stop-color="#F71923"/>
<stop offset="0.265625" stop-color="#1D7BF9"/>
<stop offset="0.526042" stop-color="#32FC47"/>
<stop offset="0.760417" stop-color="#F5FA06"/>
<stop offset="1" stop-color="#FE2A1A"/>
</linearGradient>
</defs>
</svg>
