<svg width="83" height="29" viewBox="0 0 83 29" fill="none" xmlns="http://www.w3.org/2000/svg">
<path d="M7.73826 17.4613C7.69171 18.133 7.76818 18.6351 7.96768 18.9676C8.34009 19.5727 9.13144 19.8753 10.3418 19.8753C11.0666 19.8753 11.6718 19.7955 12.1572 19.6359C13.0816 19.33 13.6302 18.7614 13.8031 17.9302C13.9095 17.4447 13.7765 17.069 13.4041 16.803C13.0383 16.5436 12.4199 16.3142 11.5487 16.1147L10.0624 15.7656C8.60609 15.4198 7.62853 15.044 7.12978 14.6384C6.28522 13.9601 6.01589 12.8994 6.32179 11.4563C6.6011 10.1396 7.31265 9.04569 8.45646 8.17454C9.60027 7.30338 11.0999 6.8678 12.9552 6.8678C14.5047 6.8678 15.7383 7.2801 16.656 8.10471C17.5737 8.92267 17.8929 10.113 17.6136 11.6758H14.661C14.8006 10.7913 14.5512 10.1629 13.9128 9.7905C13.4872 9.54445 12.9186 9.42142 12.2071 9.42142C11.4157 9.42142 10.7474 9.58102 10.2021 9.90023C9.66345 10.2194 9.33427 10.665 9.21457 11.2369C9.10152 11.7622 9.25114 12.1546 9.66345 12.4139C9.9228 12.5868 10.518 12.7897 11.449 13.0224L13.853 13.6309C14.9037 13.8969 15.6651 14.2527 16.1373 14.6982C16.8688 15.3898 17.0949 16.3907 16.8156 17.7007C16.5296 19.0441 15.7782 20.1613 14.5612 21.0524C13.3443 21.9368 11.7981 22.3791 9.9228 22.3791C8.00758 22.3791 6.59445 21.9435 5.68339 21.0723C4.77233 20.1945 4.47973 18.9909 4.80558 17.4613H7.73826ZM20.3823 22H17.3299L20.4521 7.29673H23.5045L20.3823 22ZM35.5101 7.29673H39.929L36.8068 22H33.944L36.0487 12.0548C36.1152 11.7689 36.205 11.3699 36.3181 10.8578C36.4378 10.3391 36.5242 9.94013 36.5774 9.66082L31.1809 22H28.1983L28.0487 9.66082C27.9955 9.94013 27.9157 10.3391 27.8093 10.8578C27.7096 11.3699 27.6264 11.7689 27.5599 12.0548L25.4552 22H22.5924L25.7146 7.29673H30.1834L30.3929 18.8578L35.5101 7.29673ZM39.0269 22L42.1491 7.29673H45.1915L43.9945 12.9027H49.7401L50.9371 7.29673H53.9895L50.8673 22H47.8149L49.2015 15.4364H43.4558L42.0693 22H39.0269ZM58.3941 16.4439H62.1248L61.5163 10.6583L58.3941 16.4439ZM60.5288 7.29673H64.0001L66.0849 22H62.7532L62.444 18.9776H57.0275L55.3717 22H52.1597L60.5288 7.29673ZM70.5294 17.4613C70.4829 18.133 70.5593 18.6351 70.7588 18.9676C71.1312 19.5727 71.9226 19.8753 73.1329 19.8753C73.8578 19.8753 74.4629 19.7955 74.9484 19.6359C75.8727 19.33 76.4214 18.7614 76.5943 17.9302C76.7007 17.4447 76.5677 17.069 76.1953 16.803C75.8295 16.5436 75.211 16.3142 74.3399 16.1147L72.8536 15.7656C71.3972 15.4198 70.4197 15.044 69.9209 14.6384C69.0764 13.9601 68.807 12.8994 69.1129 11.4563C69.3922 10.1396 70.1038 9.04569 71.2476 8.17454C72.3914 7.30338 73.891 6.8678 75.7464 6.8678C77.2958 6.8678 78.5294 7.2801 79.4471 8.10471C80.3648 8.92267 80.684 10.113 80.4047 11.6758H77.4521C77.5918 10.7913 77.3424 10.1629 76.704 9.7905C76.2784 9.54445 75.7098 9.42142 74.9982 9.42142C74.2069 9.42142 73.5386 9.58102 72.9933 9.90023C72.4546 10.2194 72.1254 10.665 72.0057 11.2369C71.8927 11.7622 72.0423 12.1546 72.4546 12.4139C72.7139 12.5868 73.3091 12.7897 74.2401 13.0224L76.6441 13.6309C77.6948 13.8969 78.4563 14.2527 78.9284 14.6982C79.6599 15.3898 79.886 16.3907 79.6067 17.7007C79.3208 19.0441 78.5693 20.1613 77.3524 21.0524C76.1354 21.9368 74.5893 22.3791 72.7139 22.3791C70.7987 22.3791 69.3856 21.9435 68.4745 21.0723C67.5635 20.1945 67.2709 18.9909 67.5967 17.4613H70.5294Z" fill="white"/>
</svg>
