<svg width="83" height="29" viewBox="0 0 83 29" fill="none" xmlns="http://www.w3.org/2000/svg">
<path d="M6.85047 17.2718C6.72412 18.1031 6.77732 18.778 7.01007 19.2968C7.46228 20.2677 8.51964 20.7531 10.1822 20.7531C10.927 20.7531 11.6285 20.6467 12.2869 20.4339C13.5571 20.0216 14.3052 19.2835 14.5313 18.2194C14.7042 17.4214 14.5745 16.8529 14.1423 16.5137C13.71 16.1812 12.9818 15.8919 11.9577 15.6459L10.0624 15.197C8.83219 14.9044 7.98431 14.5819 7.5188 14.2294C6.7208 13.6176 6.45147 12.7032 6.71082 11.4863C6.99012 10.1696 7.67508 9.08892 8.76569 8.24436C9.8563 7.3998 11.2362 6.97753 12.9053 6.97753C14.4415 6.97753 15.6651 7.34993 16.5762 8.09474C17.4939 8.83289 17.7798 10.0166 17.434 11.6459H15.5687C15.6352 10.8612 15.5521 10.2593 15.3193 9.84037C14.8738 9.07562 13.9261 8.69324 12.4764 8.69324C11.306 8.69324 10.4116 8.93929 9.79312 9.4314C9.18132 9.9235 8.80559 10.4954 8.66594 11.1471C8.51299 11.8653 8.69919 12.3907 9.22454 12.7232C9.57035 12.936 10.4016 13.202 11.7183 13.5212L13.6734 13.99C14.6177 14.2161 15.316 14.5253 15.7682 14.9177C16.5596 15.6026 16.8156 16.5968 16.5363 17.9002C16.1905 19.5229 15.3526 20.6833 14.0226 21.3815C12.6925 22.0798 11.2462 22.4289 9.6834 22.4289C7.86128 22.4289 6.5346 21.9634 5.70334 21.0324C4.87208 20.1081 4.63268 18.8545 4.98513 17.2718H6.85047ZM21.1304 7.3466H23.1354L20.0232 22H18.0182L21.1304 7.3466ZM25.7046 7.3466H28.5475L30.1235 19.7357L36.9365 7.3466H39.7495L36.6373 22H34.752L36.5874 13.3516C36.6472 13.0524 36.757 12.5569 36.9166 11.8653C37.0828 11.1737 37.2491 10.4322 37.4153 9.64087L30.6123 22H28.6472L27.0612 9.64087L26.9614 10.0898C26.8883 10.4489 26.7819 10.9975 26.6422 11.7356C26.5026 12.4671 26.3962 13.0058 26.323 13.3516L24.4876 22H22.5924L25.7046 7.3466ZM42.2089 7.3466H44.2139L42.9272 13.4015H50.5481L51.8349 7.3466H53.8399L50.7277 22H48.7227L50.179 15.1471H42.5581L41.1017 22H39.0967L42.2089 7.3466ZM61.9851 15.995L61.1373 9.52117L57.3966 15.995H61.9851ZM60.5687 7.3466H62.8131L65.0176 22H62.843L62.2844 17.611H56.4889L53.9752 22H51.9402L60.5687 7.3466ZM68.5045 17.2718C68.3781 18.1031 68.4313 18.778 68.6641 19.2968C69.1163 20.2677 70.1736 20.7531 71.8361 20.7531C72.5809 20.7531 73.2825 20.6467 73.9409 20.4339C75.211 20.0216 75.9592 19.2835 76.1853 18.2194C76.3582 17.4214 76.2285 16.8529 75.7962 16.5137C75.364 16.1812 74.6358 15.8919 73.6117 15.6459L71.7164 15.197C70.4862 14.9044 69.6383 14.5819 69.1728 14.2294C68.3748 13.6176 68.1055 12.7032 68.3648 11.4863C68.6441 10.1696 69.3291 9.08892 70.4197 8.24436C71.5103 7.3998 72.8902 6.97753 74.5593 6.97753C76.0955 6.97753 77.3191 7.34993 78.2302 8.09474C79.1479 8.83289 79.4338 10.0166 79.088 11.6459H77.2227C77.2892 10.8612 77.2061 10.2593 76.9733 9.84037C76.5278 9.07562 75.5801 8.69324 74.1304 8.69324C72.96 8.69324 72.0656 8.93929 71.4471 9.4314C70.8353 9.9235 70.4596 10.4954 70.3199 11.1471C70.167 11.8653 70.3532 12.3907 70.8785 12.7232C71.2243 12.936 72.0556 13.202 73.3723 13.5212L75.3274 13.99C76.2717 14.2161 76.97 14.5253 77.4222 14.9177C78.2135 15.6026 78.4696 16.5968 78.1903 17.9002C77.8445 19.5229 77.0066 20.6833 75.6765 21.3815C74.3465 22.0798 72.9001 22.4289 71.3374 22.4289C69.5153 22.4289 68.1886 21.9634 67.3573 21.0324C66.5261 20.1081 66.2867 18.8545 66.6391 17.2718H68.5045Z" fill="white"/>
</svg>
