<svg width="83" height="29" viewBox="0 0 83 29" fill="none" xmlns="http://www.w3.org/2000/svg">
<rect width="76.3715" height="1.44097" transform="matrix(1 0 0 -1 3.22803 25.8222)" fill="url(#paint0_linear)"/>
<path d="M7.0785 17.0385C6.95215 17.8697 7.00535 18.5447 7.2381 19.0634C7.69031 20.0343 8.74766 20.5198 10.4102 20.5198C11.155 20.5198 11.8566 20.4134 12.5149 20.2006C13.7851 19.7883 14.5332 19.0501 14.7593 17.9861C14.9322 17.1881 14.8025 16.6195 14.3703 16.2804C13.938 15.9479 13.2099 15.6586 12.1857 15.4125L10.2905 14.9637C9.06022 14.6711 8.21233 14.3485 7.74683 13.9961C6.94882 13.3843 6.6795 12.4699 6.93885 11.2529C7.21815 9.93622 7.90311 8.85559 8.99372 8.01103C10.0843 7.16647 11.4642 6.7442 13.1334 6.7442C14.6695 6.7442 15.8931 7.1166 16.8042 7.86141C17.7219 8.59956 18.0079 9.78327 17.6621 11.4125H15.7967C15.8632 10.6278 15.7801 10.026 15.5473 9.60704C15.1018 8.84229 14.1542 8.45991 12.7044 8.45991C11.534 8.45991 10.6396 8.70596 10.0211 9.19807C9.40934 9.69017 9.03362 10.2621 8.89397 10.9138C8.74101 11.632 8.92722 12.1573 9.45257 12.4898C9.79837 12.7026 10.6296 12.9686 11.9463 13.2879L13.9015 13.7567C14.8458 13.9828 15.544 14.292 15.9962 14.6844C16.7876 15.3693 17.0436 16.3635 16.7643 17.6669C16.4185 19.2895 15.5806 20.45 14.2506 21.1482C12.9206 21.8465 11.4742 22.1956 9.91142 22.1956C8.08931 22.1956 6.76262 21.7301 5.93137 20.7991C5.10011 19.8747 4.86071 18.6212 5.21316 17.0385H7.0785ZM21.3584 7.11327H23.3634L20.2512 21.7667H18.2462L21.3584 7.11327ZM25.9326 7.11327H28.7755L30.3516 19.5023L37.1645 7.11327H39.9775L36.8653 21.7667H34.98L36.8154 13.1183C36.8753 12.819 36.985 12.3236 37.1446 11.632C37.3108 10.9404 37.4771 10.1989 37.6433 9.40754L30.8403 21.7667H28.8753L27.2892 9.40754L27.1895 9.85642C27.1163 10.2155 27.0099 10.7642 26.8703 11.5023C26.7306 12.2338 26.6242 12.7725 26.5511 13.1183L24.7156 21.7667H22.8204L25.9326 7.11327ZM42.437 7.11327H44.442L43.1552 13.1681H50.7761L52.0629 7.11327H54.0679L50.9557 21.7667H48.9507L50.4071 14.9138H42.7861L41.3297 21.7667H39.3247L42.437 7.11327ZM62.2132 15.7617L61.3653 9.28784L57.6246 15.7617H62.2132ZM60.7967 7.11327H63.0411L65.2456 21.7667H63.071L62.5124 17.3776H56.7169L54.2032 21.7667H52.1683L60.7967 7.11327ZM68.7325 17.0385C68.6061 17.8697 68.6593 18.5447 68.8921 19.0634C69.3443 20.0343 70.4017 20.5198 72.0642 20.5198C72.809 20.5198 73.5106 20.4134 74.1689 20.2006C75.4391 19.7883 76.1872 19.0501 76.4133 17.9861C76.5862 17.1881 76.4565 16.6195 76.0243 16.2804C75.592 15.9479 74.8638 15.6586 73.8397 15.4125L71.9445 14.9637C70.7142 14.6711 69.8663 14.3485 69.4008 13.9961C68.6028 13.3843 68.3335 12.4699 68.5928 11.2529C68.8721 9.93622 69.5571 8.85559 70.6477 8.01103C71.7383 7.16647 73.1182 6.7442 74.7874 6.7442C76.3235 6.7442 77.5471 7.1166 78.4582 7.86141C79.3759 8.59956 79.6619 9.78327 79.3161 11.4125H77.4507C77.5172 10.6278 77.4341 10.026 77.2013 9.60704C76.7558 8.84229 75.8081 8.45991 74.3584 8.45991C73.188 8.45991 72.2936 8.70596 71.6751 9.19807C71.0633 9.69017 70.6876 10.2621 70.548 10.9138C70.395 11.632 70.5812 12.1573 71.1066 12.4898C71.4524 12.7026 72.2836 12.9686 73.6003 13.2879L75.5554 13.7567C76.4998 13.9828 77.198 14.292 77.6502 14.6844C78.4416 15.3693 78.6976 16.3635 78.4183 17.6669C78.0725 19.2895 77.2346 20.45 75.9046 21.1482C74.5746 21.8465 73.1282 22.1956 71.5654 22.1956C69.7433 22.1956 68.4166 21.7301 67.5854 20.7991C66.7541 19.8747 66.5147 18.6212 66.8671 17.0385H68.7325Z" fill="black"/>
<defs>
<linearGradient id="paint0_linear" x1="0" y1="1.44111" x2="76.3715" y2="1.44111" gradientUnits="userSpaceOnUse">
<stop stop-color="#F71923"/>
<stop offset="0.265625" stop-color="#1D7BF9"/>
<stop offset="0.526042" stop-color="#32FC47"/>
<stop offset="0.760417" stop-color="#F5FA06"/>
<stop offset="1" stop-color="#FE2A1A"/>
</linearGradient>
</defs>
</svg>
