<svg width="180" height="61" viewBox="0 0 180 61" fill="none" xmlns="http://www.w3.org/2000/svg">
<path fill-rule="evenodd" clip-rule="evenodd" d="M14.7128 2H19.4372L20.6644 7.93127V22.037H21.6563V28.3853H22.2514V49.8109H23.0449V19.6158L25.0288 14.9671V14.8951H28.4014V33.5433H29.5916V48.819H31.9723V57.9448H36.1384V58.3415H31.5755V49.2158H28.2029V45.6448H26.5707L26.519 45.8432H26.6159V58.1431H26.2191V46.9929L25.4255 50.0348V58.1431H25.0288V49.9839L26.2642 45.2481H26.8142V35.0072L25.416 39.3572L25.4154 39.3592L24.4336 42.3045V58.1431H24.0368V42.2401L25.0288 39.2643V15.9781L23.4417 19.6969V50.2077H21.8546V28.7821H20.2675V41.4787H19.8707V29.424L19.6724 29.8208V36.3207H15.7046V30.1708L14.1176 30.1708V36.9159H13.7208V33.5433H12.1337V43.661H12.5306V36.9159H15.2786L16.2999 43.2483V47.6287H16.8952V43.8016L18.0854 41.9313V41.4788H21.4579V58.1432H21.0612V41.8755H18.5912L18.4822 42.0468V49.6126H14.9112V37.3127H12.9274V58.1432H12.5306V52.1916H8.76126V58.3415H4V57.9448H8.36449V51.7948H12.5306V44.0578H10.745V51.7948H10.3482V43.661H11.7369V33.1465H13.7208V29.774H14.7128V2ZM28.0046 33.5433V15.2918H25.4255V38.031L26.868 33.5433H28.0046ZM15.4675 49.2158L16.2115 48.0255H16.9944L17.8871 49.2158H15.4675ZM18.0854 42.6703V48.8189L17.292 47.761V43.9172L18.0854 42.6703ZM21.2596 22.4337V28.3853H19.9465L19.2756 29.7272V35.9239H18.2838V22.4337H21.2596ZM17.887 23.0077V35.9239H17.4901V31.2789L16.1015 29.8903V26.254L17.887 23.0077ZM15.7048 29.774H15.1096V2.39677H19.0773V22.037H17.9681L15.7048 26.1521V29.774ZM19.4741 22.037H20.2676V7.97188L19.4741 4.13642V22.037ZM27.211 33.9401V45.2481H28.5997V48.819H29.1949V33.9401H27.211ZM16.1014 30.4513L17.0933 31.4432V35.9239H16.1014V30.4513ZM15.308 39.5901L15.9031 43.2801V47.7702L15.308 48.7225V39.5901Z" fill="white"/>
<path fill-rule="evenodd" clip-rule="evenodd" d="M29.5917 51.1997V53.5803H31.1788V51.1997H29.5917ZM30.782 51.5964H29.9884V53.1835H30.782V51.5964Z" fill="white"/>
<path fill-rule="evenodd" clip-rule="evenodd" d="M16.8951 37.7094V40.0901H18.879V37.7094H16.8951ZM17.2919 39.6933V38.1062H18.4822V39.6933H17.2919Z" fill="white"/>
<path fill-rule="evenodd" clip-rule="evenodd" d="M14.7128 2H19.4372L20.6644 7.93127V22.037H21.6563V28.3853H22.2514V49.8109H23.0449V19.6158L25.0288 14.9671V14.8951H28.4014V33.5433H29.5916V48.819H31.9723V57.9448H36.1384V58.3415H31.5755V49.2158H28.2029V45.6448H26.5707L26.519 45.8432H26.6159V58.1431H26.2191V46.9929L25.4255 50.0348V58.1431H25.0288V49.9839L26.2642 45.2481H26.8142V35.0072L25.416 39.3572L25.4154 39.3592L24.4336 42.3045V58.1431H24.0368V42.2401L25.0288 39.2643V15.9781L23.4417 19.6969V50.2077H21.8546V28.7821H20.2675V41.4787H19.8707V29.424L19.6724 29.8208V36.3207H15.7046V30.1708L14.1176 30.1708V36.9159H13.7208V33.5433H12.1337V43.661H12.5306V36.9159H15.2786L16.2999 43.2483V47.6287H16.8952V43.8016L18.0854 41.9313V41.4788H21.4579V58.1432H21.0612V41.8755H18.5912L18.4822 42.0468V49.6126H14.9112V37.3127H12.9274V58.1432H12.5306V52.1916H8.76126V58.3415H4V57.9448H8.36449V51.7948H12.5306V44.0578H10.745V51.7948H10.3482V43.661H11.7369V33.1465H13.7208V29.774H14.7128V2ZM28.0046 33.5433V15.2918H25.4255V38.031L26.868 33.5433H28.0046ZM15.4675 49.2158L16.2115 48.0255H16.9944L17.8871 49.2158H15.4675ZM18.0854 42.6703V48.8189L17.292 47.761V43.9172L18.0854 42.6703ZM21.2596 22.4337V28.3853H19.9465L19.2756 29.7272V35.9239H18.2838V22.4337H21.2596ZM17.887 23.0077V35.9239H17.4901V31.2789L16.1015 29.8903V26.254L17.887 23.0077ZM15.7048 29.774H15.1096V2.39677H19.0773V22.037H17.9681L15.7048 26.1521V29.774ZM19.4741 22.037H20.2676V7.97188L19.4741 4.13642V22.037ZM27.211 33.9401V45.2481H28.5997V48.819H29.1949V33.9401H27.211ZM16.1014 30.4513L17.0933 31.4432V35.9239H16.1014V30.4513ZM15.308 39.5901L15.9031 43.2801V47.7702L15.308 48.7225V39.5901Z" stroke="white" stroke-width="0.3"/>
<path fill-rule="evenodd" clip-rule="evenodd" d="M29.5917 51.1997V53.5803H31.1788V51.1997H29.5917ZM30.782 51.5964H29.9884V53.1835H30.782V51.5964Z" stroke="white" stroke-width="0.3"/>
<path fill-rule="evenodd" clip-rule="evenodd" d="M16.8951 37.7094V40.0901H18.879V37.7094H16.8951ZM17.2919 39.6933V38.1062H18.4822V39.6933H17.2919Z" stroke="white" stroke-width="0.3"/>
<path d="M40.4683 45.1413C40.5002 45.711 40.6346 46.1736 40.8716 46.529C41.3228 47.1944 42.118 47.5271 43.2573 47.5271C43.7677 47.5271 44.2326 47.4542 44.6519 47.3083C45.4631 47.0258 45.8687 46.5199 45.8687 45.7908C45.8687 45.2439 45.6978 44.8542 45.356 44.6218C45.0096 44.3939 44.4673 44.1957 43.729 44.0271L42.3687 43.7195C41.48 43.5189 40.8511 43.2979 40.4819 43.0564C39.8439 42.6371 39.5249 42.0105 39.5249 41.1765C39.5249 40.2742 39.8371 39.5336 40.4614 38.9548C41.0858 38.376 41.9699 38.0867 43.1138 38.0867C44.1665 38.0867 45.0597 38.3419 45.7935 38.8523C46.5317 39.3581 46.9009 40.1693 46.9009 41.2859H45.6226C45.5542 40.7481 45.4084 40.3357 45.1851 40.0486C44.7703 39.5245 44.0662 39.2624 43.0728 39.2624C42.2707 39.2624 41.6942 39.4311 41.3433 39.7683C40.9924 40.1055 40.8169 40.4975 40.8169 40.9441C40.8169 41.4363 41.022 41.7963 41.4321 42.0242C41.701 42.17 42.3094 42.3523 43.2573 42.571L44.6655 42.8923C45.3446 43.0473 45.8687 43.2592 46.2378 43.5281C46.8758 43.9975 47.1948 44.6788 47.1948 45.572C47.1948 46.684 46.7892 47.4792 45.978 47.9577C45.1714 48.4363 44.2326 48.6755 43.1616 48.6755C41.9129 48.6755 40.9354 48.3565 40.229 47.7185C39.5226 47.085 39.1763 46.226 39.1899 45.1413H40.4683ZM49.2251 38.3396H50.5991V48.3816H49.2251V38.3396ZM52.7798 38.3396H54.728L57.6128 46.8298L60.4771 38.3396H62.4048V48.3816H61.1128V42.4548C61.1128 42.2497 61.1174 41.9102 61.1265 41.4363C61.1356 40.9623 61.1401 40.4542 61.1401 39.9118L58.2759 48.3816H56.9292L54.0444 39.9118V40.2195C54.0444 40.4656 54.049 40.8415 54.0581 41.3474C54.0718 41.8487 54.0786 42.2178 54.0786 42.4548V48.3816H52.7798V38.3396ZM64.5103 38.3396H65.8843V42.489H71.1069V38.3396H72.481V48.3816H71.1069V43.6853H65.8843V48.3816H64.5103V38.3396ZM79.7476 44.2663L78.2231 39.8298L76.603 44.2663H79.7476ZM77.5122 38.3396H79.0503L82.6938 48.3816H81.2036L80.1851 45.3738H76.2134L75.1265 48.3816H73.7319L77.5122 38.3396ZM91.4507 44.2663L89.9263 39.8298L88.3062 44.2663H91.4507ZM89.2153 38.3396H90.7534L94.397 48.3816H92.9067L91.8882 45.3738H87.9165L86.8296 48.3816H85.4351L89.2153 38.3396ZM96.5229 45.1413C96.5549 45.711 96.6893 46.1736 96.9263 46.529C97.3774 47.1944 98.1727 47.5271 99.312 47.5271C99.8224 47.5271 100.287 47.4542 100.707 47.3083C101.518 47.0258 101.923 46.5199 101.923 45.7908C101.923 45.2439 101.752 44.8542 101.411 44.6218C101.064 44.3939 100.522 44.1957 99.7837 44.0271L98.4233 43.7195C97.5347 43.5189 96.9058 43.2979 96.5366 43.0564C95.8986 42.6371 95.5796 42.0105 95.5796 41.1765C95.5796 40.2742 95.8918 39.5336 96.5161 38.9548C97.1405 38.376 98.0246 38.0867 99.1685 38.0867C100.221 38.0867 101.114 38.3419 101.848 38.8523C102.586 39.3581 102.956 40.1693 102.956 41.2859H101.677C101.609 40.7481 101.463 40.3357 101.24 40.0486C100.825 39.5245 100.121 39.2624 99.1274 39.2624C98.3254 39.2624 97.7489 39.4311 97.3979 39.7683C97.047 40.1055 96.8716 40.4975 96.8716 40.9441C96.8716 41.4363 97.0767 41.7963 97.4868 42.0242C97.7557 42.17 98.3641 42.3523 99.312 42.571L100.72 42.8923C101.399 43.0473 101.923 43.2592 102.292 43.5281C102.931 43.9975 103.25 44.6788 103.25 45.572C103.25 46.684 102.844 47.4792 102.033 47.9577C101.226 48.4363 100.287 48.6755 99.2163 48.6755C97.9676 48.6755 96.9901 48.3565 96.2837 47.7185C95.5773 47.085 95.231 46.226 95.2446 45.1413H96.5229ZM105.861 45.1413C105.893 45.711 106.027 46.1736 106.264 46.529C106.715 47.1944 107.511 47.5271 108.65 47.5271C109.16 47.5271 109.625 47.4542 110.044 47.3083C110.856 47.0258 111.261 46.5199 111.261 45.7908C111.261 45.2439 111.09 44.8542 110.749 44.6218C110.402 44.3939 109.86 44.1957 109.122 44.0271L107.761 43.7195C106.873 43.5189 106.244 43.2979 105.875 43.0564C105.236 42.6371 104.917 42.0105 104.917 41.1765C104.917 40.2742 105.23 39.5336 105.854 38.9548C106.478 38.376 107.362 38.0867 108.506 38.0867C109.559 38.0867 110.452 38.3419 111.186 38.8523C111.924 39.3581 112.293 40.1693 112.293 41.2859H111.015C110.947 40.7481 110.801 40.3357 110.578 40.0486C110.163 39.5245 109.459 39.2624 108.465 39.2624C107.663 39.2624 107.087 39.4311 106.736 39.7683C106.385 40.1055 106.209 40.4975 106.209 40.9441C106.209 41.4363 106.415 41.7963 106.825 42.0242C107.094 42.17 107.702 42.3523 108.65 42.571L110.058 42.8923C110.737 43.0473 111.261 43.2592 111.63 43.5281C112.268 43.9975 112.587 44.6788 112.587 45.572C112.587 46.684 112.182 47.4792 111.371 47.9577C110.564 48.4363 109.625 48.6755 108.554 48.6755C107.306 48.6755 106.328 48.3565 105.622 47.7185C104.915 47.085 104.569 46.226 104.583 45.1413H105.861ZM118.644 38.0661C120.417 38.0661 121.729 38.6358 122.582 39.7751C123.247 40.6638 123.58 41.8008 123.58 43.1863C123.58 44.6856 123.199 45.932 122.438 46.9255C121.545 48.0922 120.271 48.6755 118.617 48.6755C117.072 48.6755 115.857 48.1651 114.973 47.1443C114.185 46.1599 113.791 44.9158 113.791 43.4118C113.791 42.0538 114.128 40.8917 114.802 39.9255C115.668 38.6859 116.949 38.0661 118.644 38.0661ZM118.781 47.4587C119.979 47.4587 120.845 47.0303 121.378 46.1736C121.916 45.3122 122.185 44.3233 122.185 43.2068C122.185 42.0264 121.875 41.0762 121.255 40.3562C120.64 39.6361 119.797 39.2761 118.726 39.2761C117.687 39.2761 116.839 39.6339 116.183 40.3493C115.527 41.0603 115.199 42.1107 115.199 43.5007C115.199 44.6127 115.479 45.5515 116.04 46.3171C116.605 47.0782 117.518 47.4587 118.781 47.4587ZM129.438 38.0661C130.709 38.0661 131.696 38.4011 132.398 39.071C133.1 39.741 133.489 40.502 133.567 41.3542H132.241C132.09 40.7071 131.79 40.1944 131.338 39.8161C130.892 39.4379 130.263 39.2488 129.452 39.2488C128.463 39.2488 127.663 39.5974 127.052 40.2947C126.446 40.9874 126.143 42.0515 126.143 43.487C126.143 44.6628 126.417 45.6176 126.963 46.3513C127.515 47.0805 128.335 47.4451 129.424 47.4451C130.427 47.4451 131.19 47.06 131.714 46.2898C131.992 45.8842 132.2 45.351 132.336 44.6902H133.663C133.544 45.7475 133.152 46.6339 132.487 47.3493C131.689 48.2107 130.614 48.6413 129.26 48.6413C128.094 48.6413 127.114 48.2882 126.321 47.5818C125.277 46.6475 124.755 45.2051 124.755 43.2546C124.755 41.7735 125.147 40.559 125.931 39.6111C126.779 38.5811 127.948 38.0661 129.438 38.0661ZM135.631 38.3396H137.005V48.3816H135.631V38.3396ZM144.375 44.2663L142.85 39.8298L141.23 44.2663H144.375ZM142.139 38.3396H143.677L147.321 48.3816H145.831L144.812 45.3738H140.84L139.753 48.3816H138.359L142.139 38.3396ZM154.827 38.3396V39.5359H151.443V48.3816H150.062V39.5359H146.678V38.3396H154.827ZM156.208 38.3396H163.529V39.5701H157.534V42.6189H163.078V43.781H157.534V47.1853H163.631V48.3816H156.208V38.3396ZM166.304 45.1413C166.336 45.711 166.471 46.1736 166.708 46.529C167.159 47.1944 167.954 47.5271 169.093 47.5271C169.604 47.5271 170.069 47.4542 170.488 47.3083C171.299 47.0258 171.705 46.5199 171.705 45.7908C171.705 45.2439 171.534 44.8542 171.192 44.6218C170.846 44.3939 170.303 44.1957 169.565 44.0271L168.205 43.7195C167.316 43.5189 166.687 43.2979 166.318 43.0564C165.68 42.6371 165.361 42.0105 165.361 41.1765C165.361 40.2742 165.673 39.5336 166.297 38.9548C166.922 38.376 167.806 38.0867 168.95 38.0867C170.002 38.0867 170.896 38.3419 171.629 38.8523C172.368 39.3581 172.737 40.1693 172.737 41.2859H171.458C171.39 40.7481 171.244 40.3357 171.021 40.0486C170.606 39.5245 169.902 39.2624 168.909 39.2624C168.107 39.2624 167.53 39.4311 167.179 39.7683C166.828 40.1055 166.653 40.4975 166.653 40.9441C166.653 41.4363 166.858 41.7963 167.268 42.0242C167.537 42.17 168.145 42.3523 169.093 42.571L170.501 42.8923C171.181 43.0473 171.705 43.2592 172.074 43.5281C172.712 43.9975 173.031 44.6788 173.031 45.572C173.031 46.684 172.625 47.4792 171.814 47.9577C171.007 48.4363 170.069 48.6755 168.998 48.6755C167.749 48.6755 166.771 48.3565 166.065 47.7185C165.359 47.085 165.012 46.226 165.026 45.1413H166.304Z" fill="white"/>
<rect width="137.487" height="2.26316" transform="matrix(1 0 0 -1 38.5132 54.6184)" fill="url(#paint0_linear)"/>
<defs>
<linearGradient id="paint0_linear" x1="0" y1="2.26338" x2="137.487" y2="2.26338" gradientUnits="userSpaceOnUse">
<stop stop-color="#F71923"/>
<stop offset="0.265625" stop-color="#1D7BF9"/>
<stop offset="0.526042" stop-color="#32FC47"/>
<stop offset="0.760417" stop-color="#F5FA06"/>
<stop offset="1" stop-color="#FE2A1A"/>
</linearGradient>
</defs>
</svg>
