<svg width="180" height="61" viewBox="0 0 180 61" fill="none" xmlns="http://www.w3.org/2000/svg">
<path fill-rule="evenodd" clip-rule="evenodd" d="M19.6667 5H19.8457H23.7839H23.9297L23.9592 5.14274L25.0333 10.3341L25.037 10.352V10.3704V23.0802H25.7531H25.9321V23.2593V28.8086H26.29H26.469V28.9876V48.142H27.1851V20.9321V20.8955L27.1994 20.8618L28.9752 16.7008V16.6358H31.8394H32.0184V16.8148V33.4629H32.9135H33.0925V33.642V47.2469H35.0616H35.2406V47.4259V55.4815H38.9999V55.8395H35.0616H34.8826V55.6605V47.6049H32.9135H32.0184H31.8394V47.4259V44.3827H30.7653H30.3666L30.3199 44.5617H30.4073V55.6605H30.0493V45.5991L29.3332 48.3439V55.6605H28.9752V48.321V48.298L28.981 48.2758L30.0551 44.1585L30.09 44.0247H30.2283H30.5863V34.7839L29.3246 38.7091L29.324 38.7109L28.4382 41.3685V55.6605H28.0801V41.3395V41.3104L28.0893 41.2829L28.9752 38.6253V17.613L27.5431 20.9687V48.321V48.5H27.3641H26.29H26.111V48.321V29.1666H24.6789V40.6234H24.3209V29.7459L24.1419 30.104V35.7901V35.9691H23.9629H20.7406H20.5616V35.7901V30.4198H19.8457H19.6667V30.4197H19.1295V36.5062H18.7715V33.4629H17.3394V42.5926H17.6975V36.6852V36.5062H17.8765H20.0247H20.1771L20.2014 36.6567L21.0965 42.2061L21.0988 42.2202V42.2346V46.1728H21.6359V42.7716V42.7195L21.6639 42.6755L22.7099 41.0318V40.8025V40.6234H22.8889H25.5741H25.7531V40.8025V55.6605H25.3951V40.9815H23.1663L23.0679 41.1361V47.7839V47.963H22.8889H20.0247H19.8457V47.7839V36.8642H18.0556V55.6605H17.6975V50.2901H14.2963V55.6605V55.8395H14.1173H10V55.4815H13.9383V50.1111V49.9321H14.1173H17.6975V42.9506H17.1604H16.0863V49.9321H15.7283V42.7716V42.5926H15.9073H16.9814V33.2839V33.1049H17.1604H18.7715V30.2407V30.0617H18.9505H19.6667V5.17901V5ZM31.6604 33.4629V16.9938H29.3332V37.5124L30.5949 33.5872L30.6348 33.4629H30.7653H31.6604ZM20.3477 47.6049L21.019 46.5309H21.7254L22.531 47.6049H20.3477ZM22.7099 41.6987V47.2468L21.9939 46.2922V42.8237L22.7099 41.6987ZM25.5741 23.4383V28.8086H24.4999H24.3893L24.3398 28.9076L23.8027 29.9817L23.7838 30.0195V30.0617V35.6111H22.8889V23.4383H23.6049H23.7839H24.321H24.858H25.037H25.5741ZM22.5309 23.9562V35.6111H22.1727V31.4938V31.4197L22.1203 31.3672L20.9197 30.1667V26.8855L22.5309 23.9562ZM20.5617 26.8395V30.0617H20.0247V5.35802H23.6049V23.0802H22.7099H22.604L22.553 23.173L20.5839 26.7532L20.5617 26.7935V26.8395ZM23.963 23.0802H24.321H24.679V10.3887L23.963 6.92779V23.0802ZM30.9443 33.821V44.0247H32.0184H32.1974V44.2037V47.2469H32.7345V33.821H30.9443ZM20.9196 30.6729L21.8147 31.568V35.6111H20.9196V30.6729ZM20.2037 38.9193L20.7407 42.2489V46.3005L20.2037 47.1598V38.9193ZM34.1666 49.7531H33.4505V51.1852H34.1666V49.7531ZM33.4505 49.3951H33.0925V49.7531V51.1852V51.5432H33.4505H34.1666H34.5246V51.1852V49.7531V49.3951H34.1666H33.4505ZM21.8149 37.2222H21.6359V37.4012V39.1913V39.3704H21.8149H23.247H23.426V39.1913V37.4012V37.2222H23.247H21.8149ZM21.9939 39.0123V37.5802H23.068V39.0123H21.9939Z" fill="#292929"/>
<rect width="168.174" height="1.60165" transform="matrix(1 0 0 -1 6 56.8545)" fill="url(#paint0_linear)"/>
<path d="M40.7982 49.5855C40.8305 50.1623 40.9666 50.6307 41.2066 50.9907C41.6635 51.6645 42.4688 52.0014 43.6226 52.0014C44.1394 52.0014 44.6102 51.9276 45.0347 51.7799C45.8562 51.4937 46.2669 50.9815 46.2669 50.2431C46.2669 49.6893 46.0939 49.2947 45.7477 49.0593C45.397 48.8286 44.8478 48.6278 44.1002 48.4571L42.7226 48.1456C41.8227 47.9425 41.1858 47.7187 40.812 47.4741C40.1659 47.0495 39.8429 46.415 39.8429 45.5704C39.8429 44.6567 40.159 43.9067 40.7913 43.3206C41.4235 42.7345 42.3188 42.4415 43.4772 42.4415C44.5432 42.4415 45.4478 42.6999 46.1908 43.2168C46.9384 43.729 47.3122 44.5505 47.3122 45.6812H46.0177C45.9485 45.1366 45.8008 44.719 45.5747 44.4282C45.1547 43.8975 44.4417 43.6321 43.4356 43.6321C42.6234 43.6321 42.0396 43.8029 41.6843 44.1444C41.3289 44.4859 41.1512 44.8828 41.1512 45.3351C41.1512 45.8335 41.3589 46.1981 41.7743 46.4288C42.0465 46.5765 42.6626 46.7611 43.6226 46.9826L45.0486 47.308C45.7362 47.4649 46.2669 47.6795 46.6407 47.9517C47.2868 48.4271 47.6099 49.117 47.6099 50.0216C47.6099 51.1476 47.1992 51.9529 46.3777 52.4375C45.5608 52.9221 44.6102 53.1644 43.5256 53.1644C42.2611 53.1644 41.2712 52.8413 40.5559 52.1952C39.8406 51.5537 39.4898 50.6838 39.5037 49.5855H40.7982ZM49.2405 42.6976H50.632V52.8667H49.2405V42.6976ZM52.4149 42.6976H54.3878L57.3091 51.2953L60.2096 42.6976H62.1617V52.8667H60.8534V46.8649C60.8534 46.6572 60.858 46.3134 60.8672 45.8335C60.8765 45.3535 60.8811 44.8389 60.8811 44.2898L57.9806 52.8667H56.6169L53.6956 44.2898V44.6013C53.6956 44.8505 53.7002 45.2312 53.7094 45.7435C53.7233 46.2511 53.7302 46.6249 53.7302 46.8649V52.8667H52.4149V42.6976ZM63.8685 42.6976H65.26V46.8995H70.5487V42.6976H71.9401V52.8667H70.5487V48.111H65.26V52.8667H63.8685V42.6976ZM78.8734 48.6994L77.3297 44.2067L75.6891 48.6994H78.8734ZM76.6098 42.6976H78.1673L81.857 52.8667H80.3479L79.3164 49.8208H75.2945L74.1938 52.8667H72.7816L76.6098 42.6976ZM89.874 48.6994L88.3303 44.2067L86.6897 48.6994H89.874ZM87.6104 42.6976H89.1679L92.8576 52.8667H91.3485L90.3171 49.8208H86.2951L85.1945 52.8667H83.7823L87.6104 42.6976ZM94.5852 49.5855C94.6175 50.1623 94.7536 50.6307 94.9936 50.9907C95.4505 51.6645 96.2558 52.0014 97.4096 52.0014C97.9264 52.0014 98.3972 51.9276 98.8217 51.7799C99.6432 51.4937 100.054 50.9815 100.054 50.2431C100.054 49.6893 99.8809 49.2947 99.5348 49.0593C99.184 48.8286 98.6348 48.6278 97.8872 48.4571L96.5096 48.1456C95.6097 47.9425 94.9729 47.7187 94.599 47.4741C93.9529 47.0495 93.6299 46.415 93.6299 45.5704C93.6299 44.6567 93.946 43.9067 94.5783 43.3206C95.2105 42.7345 96.1058 42.4415 97.2642 42.4415C98.3302 42.4415 99.2348 42.6999 99.9778 43.2168C100.725 43.729 101.099 44.5505 101.099 45.6812H99.8047C99.7355 45.1366 99.5878 44.719 99.3617 44.4282C98.9417 43.8975 98.2287 43.6321 97.2227 43.6321C96.4104 43.6321 95.8266 43.8029 95.4713 44.1444C95.1159 44.4859 94.9382 44.8828 94.9382 45.3351C94.9382 45.8335 95.1459 46.1981 95.5613 46.4288C95.8335 46.5765 96.4496 46.7611 97.4096 46.9826L98.8356 47.308C99.5232 47.4649 100.054 47.6795 100.428 47.9517C101.074 48.4271 101.397 49.117 101.397 50.0216C101.397 51.1476 100.986 51.9529 100.165 52.4375C99.3479 52.9221 98.3972 53.1644 97.3126 53.1644C96.0481 53.1644 95.0582 52.8413 94.3429 52.1952C93.6276 51.5537 93.2768 50.6838 93.2907 49.5855H94.5852ZM103.616 49.5855C103.648 50.1623 103.784 50.6307 104.024 50.9907C104.481 51.6645 105.287 52.0014 106.44 52.0014C106.957 52.0014 107.428 51.9276 107.853 51.7799C108.674 51.4937 109.085 50.9815 109.085 50.2431C109.085 49.6893 108.912 49.2947 108.566 49.0593C108.215 48.8286 107.666 48.6278 106.918 48.4571L105.54 48.1456C104.64 47.9425 104.004 47.7187 103.63 47.4741C102.984 47.0495 102.661 46.415 102.661 45.5704C102.661 44.6567 102.977 43.9067 103.609 43.3206C104.241 42.7345 105.137 42.4415 106.295 42.4415C107.361 42.4415 108.266 42.6999 109.009 43.2168C109.756 43.729 110.13 44.5505 110.13 45.6812H108.836C108.766 45.1366 108.619 44.719 108.392 44.4282C107.973 43.8975 107.259 43.6321 106.253 43.6321C105.441 43.6321 104.857 43.8029 104.502 44.1444C104.147 44.4859 103.969 44.8828 103.969 45.3351C103.969 45.8335 104.177 46.1981 104.592 46.4288C104.864 46.5765 105.48 46.7611 106.44 46.9826L107.866 47.308C108.554 47.4649 109.085 47.6795 109.459 47.9517C110.105 48.4271 110.428 49.117 110.428 50.0216C110.428 51.1476 110.017 51.9529 109.195 52.4375C108.379 52.9221 107.428 53.1644 106.343 53.1644C105.079 53.1644 104.089 52.8413 103.374 52.1952C102.658 51.5537 102.308 50.6838 102.321 49.5855H103.616ZM116.136 42.4207C117.931 42.4207 119.26 42.9976 120.123 44.1513C120.797 45.0512 121.134 46.2027 121.134 47.6056C121.134 49.124 120.748 50.3861 119.978 51.3922C119.073 52.5736 117.783 53.1644 116.108 53.1644C114.543 53.1644 113.314 52.6475 112.418 51.6137C111.62 50.6169 111.221 49.357 111.221 47.8341C111.221 46.4588 111.562 45.282 112.245 44.3036C113.122 43.0483 114.419 42.4207 116.136 42.4207ZM116.274 51.9322C117.488 51.9322 118.365 51.4984 118.905 50.6307C119.449 49.7585 119.722 48.7571 119.722 47.6264C119.722 46.4311 119.408 45.4689 118.78 44.7397C118.157 44.0106 117.303 43.646 116.219 43.646C115.167 43.646 114.308 44.0082 113.644 44.7328C112.979 45.4527 112.647 46.5165 112.647 47.9241C112.647 49.0501 112.931 50.0008 113.498 50.7761C114.07 51.5468 114.996 51.9322 116.274 51.9322ZM126.641 42.4207C127.928 42.4207 128.928 42.7599 129.638 43.4383C130.349 44.1167 130.744 44.8874 130.822 45.7504H129.479C129.327 45.0951 129.022 44.5759 128.565 44.1928C128.113 43.8098 127.476 43.6183 126.655 43.6183C125.653 43.6183 124.843 43.9713 124.225 44.6774C123.611 45.3789 123.304 46.4565 123.304 47.9102C123.304 49.1009 123.581 50.0677 124.135 50.8107C124.693 51.5491 125.524 51.9183 126.627 51.9183C127.642 51.9183 128.415 51.5284 128.946 50.7484C129.228 50.3377 129.438 49.7977 129.576 49.1286H130.919C130.799 50.1992 130.402 51.0969 129.728 51.8214C128.921 52.6936 127.832 53.1298 126.461 53.1298C125.28 53.1298 124.287 52.7721 123.484 52.0568C122.427 51.1107 121.899 49.6501 121.899 47.6748C121.899 46.175 122.296 44.9451 123.09 43.9852C123.948 42.9422 125.132 42.4207 126.641 42.4207ZM132.487 42.6976H133.879V52.8667H132.487V42.6976ZM140.916 48.6994L139.372 44.2067L137.732 48.6994H140.916ZM138.652 42.6976H140.21L143.899 52.8667H142.39L141.359 49.8208H137.337L136.236 52.8667H134.824L138.652 42.6976ZM151.075 42.6976V43.909H147.648V52.8667H146.25V43.909H142.823V42.6976H151.075ZM152.048 42.6976H159.462V43.9436H153.391V47.0311H159.005V48.2079H153.391V51.6553H159.566V52.8667H152.048V42.6976ZM161.847 49.5855C161.88 50.1623 162.016 50.6307 162.256 50.9907C162.713 51.6645 163.518 52.0014 164.672 52.0014C165.188 52.0014 165.659 51.9276 166.084 51.7799C166.905 51.4937 167.316 50.9815 167.316 50.2431C167.316 49.6893 167.143 49.2947 166.797 49.0593C166.446 48.8286 165.897 48.6278 165.149 48.4571L163.772 48.1456C162.872 47.9425 162.235 47.7187 161.861 47.4741C161.215 47.0495 160.892 46.415 160.892 45.5704C160.892 44.6567 161.208 43.9067 161.84 43.3206C162.473 42.7345 163.368 42.4415 164.526 42.4415C165.592 42.4415 166.497 42.6999 167.24 43.2168C167.987 43.729 168.361 44.5505 168.361 45.6812H167.067C166.998 45.1366 166.85 44.719 166.624 44.4282C166.204 43.8975 165.491 43.6321 164.485 43.6321C163.672 43.6321 163.089 43.8029 162.733 44.1444C162.378 44.4859 162.2 44.8828 162.2 45.3351C162.2 45.8335 162.408 46.1981 162.823 46.4288C163.096 46.5765 163.712 46.7611 164.672 46.9826L166.098 47.308C166.785 47.4649 167.316 47.6795 167.69 47.9517C168.336 48.4271 168.659 49.117 168.659 50.0216C168.659 51.1476 168.248 51.9529 167.427 52.4375C166.61 52.9221 165.659 53.1644 164.575 53.1644C163.31 53.1644 162.32 52.8413 161.605 52.1952C160.89 51.5537 160.539 50.6838 160.553 49.5855H161.847Z" fill="#292929"/>
<defs>
<linearGradient id="paint0_linear" x1="0" y1="1.60181" x2="168.174" y2="1.60181" gradientUnits="userSpaceOnUse">
<stop stop-color="#F71923"/>
<stop offset="0.265625" stop-color="#1D7BF9"/>
<stop offset="0.526042" stop-color="#32FC47"/>
<stop offset="0.760417" stop-color="#F5FA06"/>
<stop offset="1" stop-color="#FE2A1A"/>
</linearGradient>
</defs>
</svg>
